<svg width="50" height="50" viewBox="0 0 50 50" fill="none" xmlns="http://www.w3.org/2000/svg">
<path d="M22.347 18.9464C21.862 18.5092 21.3981 18.1117 20.9659 17.7042C19.0683 15.8856 19.0683 13.0931 20.9553 11.2646C21.5246 10.7181 22.1045 10.1715 22.6843 9.63485C24.5925 7.89576 27.5549 7.89576 29.4526 9.65472C30.5384 10.6584 31.6032 11.6621 32.668 12.6857C33.5536 13.5403 33.5536 14.8422 32.6785 15.667C31.8141 16.4819 30.4541 16.5018 29.5474 15.6869C28.5143 14.7428 27.5127 13.7788 26.4901 12.8248C26.1106 12.4671 26.0052 12.4671 25.6151 12.8348C25.1618 13.2521 24.719 13.6795 24.2762 14.0968C23.9178 14.4347 23.9178 14.554 24.2868 14.8919C26.6272 17.098 28.9676 19.3042 31.2975 21.5103C33.3533 23.4581 33.3533 26.2307 31.2975 28.1884C30.4963 28.9437 29.695 29.6989 28.7989 30.5536C29.0836 30.7722 29.3577 30.9809 29.6107 31.2095C30.0113 31.5672 30.4014 31.9448 30.7809 32.3125C32.6364 34.0914 32.6575 36.9037 30.8231 38.6925C30.2327 39.2589 29.6423 39.8254 29.0309 40.3819C27.1543 42.1011 24.1603 42.0912 22.2837 40.372C21.2084 39.3782 20.1541 38.3745 19.0999 37.3708C18.1721 36.4863 18.1511 35.2143 19.0261 34.3696C19.9116 33.515 21.2927 33.515 22.2415 34.3994C23.2431 35.3236 24.2235 36.2578 25.204 37.1919C25.6046 37.5695 25.6994 37.5695 26.1106 37.182C26.5534 36.7745 26.9856 36.3571 27.4284 35.9398C27.8079 35.5721 27.8185 35.4826 27.4284 35.1149C24.9826 32.8094 22.5367 30.484 20.0698 28.1884C19.1948 27.3437 18.5411 26.4394 18.383 25.2568C18.1721 23.7562 18.636 22.4544 19.7535 21.3811C20.5758 20.5762 21.4298 19.801 22.347 18.9464ZM25.4675 21.9476C24.5925 22.7724 23.7491 23.5575 22.9268 24.3525C22.7054 24.5612 22.8003 24.7699 23.0006 24.9686C23.7807 25.704 24.5609 26.4394 25.341 27.1748C25.4464 27.2742 25.5624 27.3735 25.6994 27.4928C26.5639 26.6779 27.3968 25.8928 28.2191 25.0978C28.4089 24.9189 28.3772 24.7102 28.1875 24.5413C27.3019 23.6867 26.4058 22.832 25.4675 21.9476Z" fill="#0DE99A"/>
<rect x="0.5" y="0.5" width="49" height="49" rx="2.5" stroke="#0DE99A"/>
</svg>
