<svg width="50" height="50" viewBox="0 0 50 50" fill="none" xmlns="http://www.w3.org/2000/svg">
<path d="M46.2626 0.000486245C46.7512 -0.00733358 47.2365 0.0818964 47.6903 0.262983C48.1442 0.44407 48.5576 0.713405 48.9066 1.05542C49.2563 1.38 49.5342 1.77424 49.7225 2.2127C49.9107 2.65116 50.0051 3.12416 49.9995 3.60129V46.4508C50.0078 46.9245 49.9146 47.3945 49.7261 47.8291C49.5375 48.2638 49.2581 48.653 48.9066 48.9706C48.5645 49.304 48.16 49.5664 47.7163 49.743C47.2725 49.9196 46.7982 50.0068 46.3207 49.9996H3.67835C3.20078 50.0069 2.7265 49.9198 2.28271 49.7432C1.83893 49.5667 1.4344 49.3041 1.09245 48.9706C0.741154 48.6529 0.461984 48.2636 0.273639 47.8289C0.0852927 47.3943 -0.00784511 46.9244 0.000517144 46.4508V3.60129C-0.00543153 3.1242 0.0886741 2.65113 0.276751 2.21264C0.464828 1.77414 0.742682 1.37994 1.09245 1.05542C1.44137 0.713314 1.8548 0.443893 2.30865 0.2628C2.76251 0.0817071 3.2478 -0.00744443 3.73639 0.000486245H46.2626ZM14.4819 15.1106C15.2181 14.3663 15.6311 13.3617 15.6311 12.3148C15.6311 11.2679 15.2181 10.2632 14.4819 9.51891C14.0749 9.13813 13.5956 8.84285 13.0724 8.65049C12.5493 8.45813 11.9928 8.3726 11.436 8.39898C10.875 8.37418 10.3146 8.46033 9.78699 8.65251C9.25934 8.84469 8.77485 9.13912 8.36121 9.51891C7.97755 9.87395 7.67397 10.3067 7.47068 10.7882C7.26739 11.2698 7.16905 11.7892 7.18224 12.3118C7.16671 12.8329 7.26095 13.3515 7.4589 13.8339C7.65684 14.3163 7.95404 14.7516 8.33118 15.1116C8.72884 15.4888 9.19824 15.7823 9.71149 15.9747C10.2247 16.1671 10.7714 16.2544 11.3191 16.2315H11.376C11.9425 16.2616 12.5093 16.1779 13.0429 15.9854C13.5765 15.7929 14.0661 15.4954 14.4829 15.1106H14.4819ZM15.1719 19.3103H7.64322V41.887H15.1719V19.3103ZM42.3548 28.9098C42.3548 25.603 41.5299 23.0441 39.8839 21.2542C39.0831 20.4278 38.1153 19.7814 37.0451 19.3583C35.9748 18.9352 34.8267 18.745 33.6771 18.8003C32.0721 18.7551 30.4905 19.193 29.1374 20.0573C28.2419 20.7289 27.4815 21.5639 26.8964 22.5181V19.3183H19.3677C19.4051 20.1909 19.4051 24.2097 19.3677 31.3746V41.888H26.8964V29.2638C26.871 28.6433 26.9488 28.0229 27.1264 27.4279C27.4128 26.6906 27.8884 26.0418 28.5054 25.547C29.2178 24.9662 30.1155 24.6612 31.0342 24.688C31.6049 24.6531 32.1748 24.7666 32.6885 25.0176C33.2021 25.2685 33.642 25.6483 33.9652 26.1199C34.5998 27.2282 34.8992 28.4967 34.8271 29.7718V41.887H42.3558L42.3548 28.9098Z" fill="#0DE99A"/>
</svg>
