<svg width="30" height="30" viewBox="0 0 30 30" fill="none" xmlns="http://www.w3.org/2000/svg">
<path d="M13.4081 11.368C13.1171 11.1057 12.8388 10.8672 12.5794 10.6227C11.4409 9.53157 11.4409 7.85608 12.5731 6.75897C12.9147 6.43103 13.2626 6.10308 13.6105 5.7811C14.7554 4.73765 16.5329 4.73765 17.6714 5.79303C18.323 6.39525 18.9618 6.99747 19.6007 7.61162C20.132 8.1244 20.132 8.9055 19.607 9.40039C19.0883 9.88932 18.2724 9.90125 17.7284 9.41232C17.1085 8.84587 16.5076 8.2675 15.894 7.69509C15.6663 7.48044 15.603 7.48044 15.369 7.70106C15.097 7.95148 14.8313 8.20788 14.5656 8.4583C14.3506 8.66103 14.3506 8.73258 14.572 8.93531C15.9762 10.259 17.3805 11.5827 18.7784 12.9064C20.0119 14.0751 20.0119 15.7386 18.7784 16.9132C18.2977 17.3664 17.8169 17.8196 17.2793 18.3323C17.45 18.4635 17.6145 18.5887 17.7663 18.7259C18.0067 18.9405 18.2407 19.1671 18.4684 19.3877C19.5817 20.455 19.5944 22.1424 18.4937 23.2157C18.1395 23.5556 17.7853 23.8954 17.4184 24.2293C16.2925 25.2609 14.4961 25.2549 13.3701 24.2234C12.7249 23.6271 12.0924 23.0249 11.4598 22.4227C10.9032 21.892 10.8905 21.1288 11.4156 20.622C11.9469 20.1092 12.7755 20.1092 13.3448 20.6399C13.9457 21.1944 14.534 21.7549 15.1223 22.3153C15.3626 22.5419 15.4196 22.5419 15.6663 22.3094C15.9319 22.0649 16.1913 21.8145 16.4569 21.5641C16.6847 21.3434 16.691 21.2898 16.4569 21.0692C14.9894 19.6858 13.5219 18.2906 12.0418 16.9132C11.5168 16.4064 11.1246 15.8638 11.0297 15.1543C10.9032 14.2539 11.1815 13.4728 11.852 12.8289C12.3454 12.3459 12.8578 11.8808 13.4081 11.368ZM15.2804 13.1687C14.7554 13.6636 14.2494 14.1347 13.756 14.6117C13.6231 14.7369 13.6801 14.8621 13.8003 14.9814C14.2683 15.4226 14.7364 15.8638 15.2045 16.3051C15.2678 16.3647 15.3373 16.4243 15.4196 16.4959C15.9383 16.0069 16.438 15.5359 16.9314 15.0589C17.0452 14.9516 17.0262 14.8263 16.9124 14.725C16.381 14.2122 15.8434 13.6994 15.2804 13.1687Z" fill="#0DE99A"/>
<rect x="0.5" y="0.5" width="29" height="29" rx="2.5" stroke="#0DE99A"/>
</svg>
