<svg width="16" height="36" viewBox="0 0 16 36" fill="none" xmlns="http://www.w3.org/2000/svg">
<path d="M4.0752 11.4625C3.58279 10.9902 3.11178 10.5609 2.67289 10.1209C0.746061 8.15682 0.746061 5.14095 2.66219 3.16614C3.24024 2.57585 3.82899 1.98555 4.41775 1.40599C6.35529 -0.472225 9.36329 -0.472225 11.2901 1.42745C12.3927 2.51145 13.4739 3.59545 14.555 4.70091C15.4542 5.62392 15.4542 7.0299 14.5657 7.9207C13.688 8.80078 12.3071 8.82225 11.3865 7.94217C10.3374 6.92257 9.32047 5.8815 8.28212 4.85117C7.89675 4.46479 7.78971 4.46479 7.39364 4.8619C6.93334 5.31267 6.48374 5.77418 6.03415 6.22495C5.67019 6.58986 5.67019 6.71865 6.04485 7.08356C8.42128 9.46621 10.7977 11.8489 13.1634 14.2315C15.2508 16.3351 15.2508 19.3295 13.1634 21.4438C12.3499 22.2595 11.5363 23.0752 10.6264 23.9982C10.9155 24.2343 11.1938 24.4597 11.4507 24.7066C11.8575 25.0929 12.2535 25.5008 12.6389 25.8979C14.5229 27.819 14.5443 30.8564 12.6817 32.7882C12.0823 33.4 11.4828 34.0118 10.8619 34.6128C8.95651 36.4695 5.9164 36.4588 4.01097 34.6021C2.9191 33.5288 1.84864 32.4448 0.778175 31.3608C-0.163833 30.4056 -0.185242 29.0318 0.703242 28.1195C1.60243 27.1965 3.00474 27.1965 3.96815 28.1517C4.98509 29.1499 5.98062 30.1587 6.97616 31.1676C7.38293 31.5755 7.47927 31.5755 7.89675 31.1569C8.34635 30.7168 8.78524 30.2661 9.23483 29.8153C9.6202 29.4182 9.6309 29.3216 9.23483 28.9245C6.75136 26.4345 4.26788 23.9231 1.763 21.4438C0.874516 20.5316 0.210829 19.5549 0.0502599 18.2777C-0.163833 16.6571 0.307171 15.2511 1.44186 14.092C2.27682 13.2226 3.1439 12.3855 4.0752 11.4625ZM7.24377 14.7037C6.35529 15.5945 5.49892 16.4424 4.66396 17.301C4.43916 17.5264 4.5355 17.7518 4.73889 17.9665C5.53103 18.7607 6.32317 19.5549 7.11532 20.3491C7.22236 20.4564 7.34011 20.5638 7.47927 20.6926C8.35705 19.8125 9.20272 18.9646 10.0377 18.106C10.2304 17.9128 10.1982 17.6874 10.0056 17.505C9.10638 16.582 8.19648 15.6589 7.24377 14.7037Z" fill="white"/>
</svg>
