<svg width="10" height="21" viewBox="0 0 10 21" fill="none" xmlns="http://www.w3.org/2000/svg">
<path d="M3.04162 7.13876C2.77144 6.87965 2.51301 6.6441 2.27221 6.40267C1.21501 5.32503 1.21501 3.67031 2.26633 2.58678C2.58349 2.26291 2.90653 1.93903 3.22956 1.62104C4.29264 0.590513 5.94304 0.590512 7.00024 1.63281C7.6052 2.22757 8.19841 2.82233 8.79161 3.42887C9.28497 3.9353 9.28497 4.70672 8.79749 5.19548C8.31587 5.67836 7.55821 5.69013 7.0531 5.20726C6.47752 4.64783 5.91955 4.07663 5.34984 3.51131C5.1384 3.29932 5.07966 3.29932 4.86235 3.5172C4.6098 3.76453 4.36312 4.01774 4.11644 4.26507C3.91674 4.46528 3.91674 4.53595 4.12231 4.73616C5.42619 6.04346 6.73007 7.35075 8.02808 8.65804C9.17338 9.81223 9.17338 11.4552 8.02808 12.6153C7.58171 13.0628 7.13533 13.5103 6.6361 14.0168C6.79468 14.1463 6.94738 14.27 7.08835 14.4054C7.31153 14.6174 7.52885 14.8412 7.74029 15.0591C8.77399 16.1131 8.78574 17.7797 7.76378 18.8396C7.43487 19.1753 7.10596 19.5109 6.76531 19.8407C5.71986 20.8594 4.05183 20.8536 3.00638 19.8348C2.40729 19.2459 1.81996 18.6512 1.23263 18.0564C0.715774 17.5323 0.704027 16.7786 1.19151 16.278C1.68487 15.7716 2.45428 15.7716 2.98288 16.2957C3.54085 16.8433 4.08707 17.3969 4.63329 17.9504C4.85648 18.1742 4.90934 18.1742 5.1384 17.9445C5.38508 17.7031 5.62588 17.4558 5.87256 17.2084C6.084 16.9906 6.08988 16.9376 5.87256 16.7197C4.50995 15.3535 3.14734 13.9755 1.77297 12.6153C1.28549 12.1147 0.92134 11.5788 0.83324 10.8781C0.715774 9.98889 0.9742 9.21747 1.59677 8.58149C2.05489 8.10451 2.53063 7.64519 3.04162 7.13876ZM4.78012 8.91715C4.29264 9.40591 3.82277 9.87112 3.36465 10.3422C3.24131 10.4659 3.29417 10.5895 3.40576 10.7073C3.84039 11.1431 4.27502 11.5788 4.70964 12.0146C4.76838 12.0735 4.83298 12.1324 4.90934 12.203C5.39095 11.7202 5.85494 11.255 6.31306 10.7839C6.41878 10.6779 6.40116 10.5542 6.29544 10.4541C5.80208 9.94767 5.30285 9.44124 4.78012 8.91715Z" fill="white"/>
</svg>
