<svg width="30" height="30" viewBox="0 0 30 30" fill="none" xmlns="http://www.w3.org/2000/svg">
<path d="M27.7576 0.000291747C28.0507 -0.00440015 28.3419 0.0491378 28.6142 0.15779C28.8865 0.266442 29.1346 0.428043 29.3439 0.63325C29.5538 0.828002 29.7205 1.06454 29.8335 1.32762C29.9464 1.5907 30.003 1.8745 29.9997 2.16077V27.8705C30.0047 28.1547 29.9488 28.4367 29.8356 28.6975C29.7225 28.9583 29.5549 29.1918 29.3439 29.3824C29.1387 29.5824 28.896 29.7398 28.6298 29.8458C28.3635 29.9517 28.0789 30.0041 27.7924 29.9997H2.20701C1.92047 30.0042 1.6359 29.9519 1.36963 29.8459C1.10336 29.74 0.860643 29.5825 0.655472 29.3824C0.444692 29.1917 0.277191 28.9581 0.164183 28.6973C0.0511757 28.4366 -0.00470707 28.1546 0.000310287 27.8705V2.16077C-0.00325892 1.87452 0.0532045 1.59068 0.166051 1.32758C0.278897 1.06449 0.445609 0.827962 0.655472 0.63325C0.864822 0.427989 1.11288 0.266336 1.38519 0.15768C1.65751 0.0490243 1.94868 -0.00446666 2.24183 0.000291747H27.7576ZM8.68916 9.06637C9.13088 8.61979 9.37863 8.01699 9.37863 7.38886C9.37863 6.76073 9.13088 6.15793 8.68916 5.71135C8.44492 5.48288 8.15736 5.30571 7.84346 5.19029C7.52957 5.07488 7.19569 5.02356 6.86162 5.03939C6.52501 5.02451 6.18878 5.0762 5.87219 5.1915C5.5556 5.30681 5.26491 5.48347 5.01672 5.71135C4.78653 5.92437 4.60438 6.184 4.48241 6.47295C4.36043 6.76189 4.30143 7.07353 4.30934 7.38707C4.30003 7.69976 4.35657 8.01093 4.47534 8.30034C4.5941 8.58976 4.77242 8.85094 4.99871 9.06696C5.2373 9.2933 5.51894 9.4694 5.8269 9.58482C6.13485 9.70025 6.46287 9.75266 6.79146 9.73892H6.82562C7.16551 9.75696 7.50558 9.70675 7.82574 9.59123C8.14591 9.47572 8.43968 9.29727 8.68974 9.06637H8.68916ZM9.10314 11.5862H4.58593V25.1322H9.10314V11.5862ZM25.4129 17.3459C25.4129 15.3618 24.9179 13.8265 23.9304 12.7525C23.4498 12.2567 22.8692 11.8689 22.227 11.615C21.5849 11.3611 20.896 11.247 20.2063 11.2802C19.2433 11.253 18.2943 11.5158 17.4824 12.0344C16.9451 12.4374 16.4889 12.9383 16.1378 13.5109V11.591H11.6206C11.643 12.1146 11.643 14.5258 11.6206 18.8248V25.1328H16.1378V17.5583C16.1226 17.186 16.1693 16.8138 16.2759 16.4567C16.4477 16.0144 16.733 15.6251 17.1032 15.3282C17.5307 14.9797 18.0693 14.7967 18.6205 14.8128C18.9629 14.7918 19.3049 14.86 19.6131 15.0105C19.9213 15.1611 20.1852 15.389 20.3791 15.672C20.7599 16.3369 20.9395 17.098 20.8963 17.8631V25.1322H25.4135L25.4129 17.3459Z" fill="#0DE99A"/>
</svg>
